<?xml version="1.0" encoding="UTF-8" standalone="no"?>
<!-- Created with Inkscape (http://www.inkscape.org/) -->

<svg
   width="94.15992mm"
   height="19.875116mm"
   viewBox="0 0 94.15992 19.875116"
   version="1.1"
   id="svg5"
   sodipodi:docname="cover.svg"
   inkscape:version="1.1.2 (b8e25be8, 2022-02-05)"
   xmlns:inkscape="http://www.inkscape.org/namespaces/inkscape"
   xmlns:sodipodi="http://sodipodi.sourceforge.net/DTD/sodipodi-0.dtd"
   xmlns="http://www.w3.org/2000/svg"
   xmlns:svg="http://www.w3.org/2000/svg">
  <sodipodi:namedview
     id="namedview7"
     pagecolor="#505050"
     bordercolor="#eeeeee"
     borderopacity="1"
     inkscape:pageshadow="0"
     inkscape:pageopacity="0"
     inkscape:pagecheckerboard="0"
     inkscape:document-units="mm"
     showgrid="false"
     inkscape:zoom="1.4355524"
     inkscape:cx="134.09472"
     inkscape:cy="70.70449"
     inkscape:window-width="1680"
     inkscape:window-height="929"
     inkscape:window-x="46"
     inkscape:window-y="68"
     inkscape:window-maximized="0"
     inkscape:current-layer="layer2" />
  <defs
     id="defs2">
    <rect
       x="890.32947"
       y="405.13193"
       width="831.08093"
       height="307.4519"
       id="rect3488" />
    <rect
       x="57.647232"
       y="83.268219"
       width="685.36151"
       height="506.01459"
       id="rect1662" />
    <rect
       x="57.647232"
       y="83.268219"
       width="685.36151"
       height="506.01459"
       id="rect31339" />
    <filter
       inkscape:collect="always"
       style="color-interpolation-filters:sRGB"
       id="filter31552"
       x="-0.010824591"
       y="-0.05579721"
       width="1.0216492"
       height="1.1115944">
      <feGaussianBlur
         inkscape:collect="always"
         stdDeviation="1.2836915"
         id="feGaussianBlur31554" />
    </filter>
  </defs>
  <g
     inkscape:label="Layer 1"
     inkscape:groupmode="layer"
     id="layer1"
     style="display:inline"
     transform="translate(-58.61669,-21.808302)">
    <g
       aria-label="$olutions 
Damn Vulnerable DeFi"
       transform="scale(0.26458333)"
       id="text1660"
       style="font-weight:bold;font-size:32px;line-height:1.25;-inkscape-font-specification:'sans-serif Bold';letter-spacing:-1.52px;word-spacing:0px;white-space:pre;shape-inside:url(#rect1662);opacity:0.530159;fill:#b5e8ff;stroke:#b5e8ff;stroke-width:1.37953;filter:url(#filter31552)">
      <path
         d="m 320.29215,115.28945 v -2.45312 q -1.04688,0 -2.17188,-0.10938 -1.125,-0.10937 -2.10937,-0.32812 -0.98438,-0.23438 -2.26563,-0.8125 v -3 q 1.03125,0.53125 2.01563,0.90625 1,0.375 2.09375,0.59375 1.10937,0.21875 2.4375,0.3125 v -8.70313 l -1.67188,-0.90625 q -4.75,-2.546872 -4.75,-6.156247 0,-1.921875 1.57813,-3.734375 1.57812,-1.828125 4.84375,-2.109375 v -2.59375 h 2.1875 v 2.59375 q 1.84375,0 4.35937,0.640625 v 2.703125 l -0.54687,-0.15625 q -2.35938,-0.65625 -3.8125,-0.796875 v 8.5 l 1.75,1.000002 q 2.46875,1.42187 3.375,2.79687 0.92187,1.375 0.92187,2.92188 0,1.39062 -0.70312,2.70312 -0.6875,1.29688 -1.98438,2.23438 -1.29687,0.9375 -3.35937,1.29687 v 2.65625 z m 0,-16.921872 v -7.21875 q -1.57813,0.359375 -2.4375,1.1875 -0.84375,0.828125 -0.84375,1.9375 0,1.046875 0.71875,2.015625 0.73437,0.953125 2.5625,2.078125 z m 2.1875,4.625002 v 7.1875 q 1.70312,-0.60938 2.29687,-1.48438 0.60938,-0.89062 0.60938,-1.98437 0,-1.0625 -0.59375,-1.8125 -0.59375,-0.76563 -2.3125,-1.90625 z"
         style="font-family:Monaco;-inkscape-font-specification:'Monaco Bold';text-align:center;text-anchor:middle"
         id="path1407" />
      <path
         d="m 338.50652,113.35195 q -3.75,0 -6,-2.60937 -2.25,-2.625 -2.25,-6.60938 0,-3.98437 2.25,-6.593747 2.25,-2.609375 6,-2.609375 3.73438,0 5.98438,2.609375 2.25,2.609377 2.25,6.593747 0,3.98438 -2.25,6.60938 -2.25,2.60937 -5.98438,2.60937 z m 0,-2.42187 q 2.32813,0 3.70313,-1.8125 1.375,-1.8125 1.375,-4.98438 0,-3.15625 -1.375,-4.968747 -1.375,-1.8125 -3.70313,-1.8125 -2.34375,0 -3.71875,1.8125 -1.375,1.812497 -1.375,4.968747 0,3.17188 1.375,4.98438 1.375,1.8125 3.71875,1.8125 z"
         style="font-family:Monaco;-inkscape-font-specification:'Monaco Bold';text-align:center;text-anchor:middle"
         id="path1409" />
      <path
         d="M 353.67402,112.86758 V 90.086328 h -5.21875 v -2.4375 h 8.125 V 110.4457 h 5.45313 v 2.42188 z"
         style="font-family:Monaco;-inkscape-font-specification:'Monaco Bold';text-align:center;text-anchor:middle"
         id="path1411" />
      <path
         d="m 381.0134,95.414453 v 17.453127 h -2.90625 v -3.82813 q -1.40625,2.15625 -3.125,3.23438 -1.71875,1.07812 -3.4375,1.07812 -1.53125,0 -2.8125,-0.8125 -1.26563,-0.82812 -1.76563,-2.15625 -0.5,-1.34375 -0.5,-5.21875 v -9.749997 h 2.90625 v 10.109377 q 0,2.51562 0.23438,3.32812 0.25,0.79688 0.89062,1.3125 0.65625,0.51563 1.40625,0.51563 1.53125,0 3.28125,-1.4375 1.76563,-1.45313 2.92188,-3.65625 V 95.414453 Z"
         style="font-family:Monaco;-inkscape-font-specification:'Monaco Bold';text-align:center;text-anchor:middle"
         id="path1413" />
      <path
         d="m 398.91527,112.16445 q -2.04687,0.85938 -2.96875,1.01563 -0.92187,0.17187 -1.78125,0.17187 -1.82812,0 -3.34375,-0.70312 -1.51562,-0.70313 -2.29687,-2.07813 -0.76563,-1.375 -0.76563,-4.25 v -7.031247 h -4.35937 v -2.421875 h 4.35937 v -7.03125 h 2.90625 v 7.03125 h 7.76563 v 2.421875 h -7.76563 v 6.984377 q 0,2.10937 0.5,2.98437 0.5,0.85938 1.32813,1.26563 0.84375,0.40625 1.98437,0.40625 2.10938,0 4.4375,-1.32813 z"
         style="font-family:Monaco;-inkscape-font-specification:'Monaco Bold';text-align:center;text-anchor:middle"
         id="path1415" />
      <path
         d="M 406.87965,112.86758 V 97.836328 h -4.84375 v -2.421875 h 7.75 V 110.4457 h 4.85937 v 2.42188 z m -0.48438,-23.750002 q 0,-0.984375 0.67188,-1.46875 0.67187,-0.484375 1.26562,-0.484375 0.60938,0 1.28125,0.484375 0.67188,0.484375 0.67188,1.46875 0,0.96875 -0.67188,1.453125 -0.67187,0.484375 -1.28125,0.484375 -0.59375,0 -1.26562,-0.484375 -0.67188,-0.484375 -0.67188,-1.453125 z"
         style="font-family:Monaco;-inkscape-font-specification:'Monaco Bold';text-align:center;text-anchor:middle"
         id="path1417" />
      <path
         d="m 426.84402,113.35195 q -3.75,0 -6,-2.60937 -2.25,-2.625 -2.25,-6.60938 0,-3.98437 2.25,-6.593747 2.25,-2.609375 6,-2.609375 3.73438,0 5.98438,2.609375 2.25,2.609377 2.25,6.593747 0,3.98438 -2.25,6.60938 -2.25,2.60937 -5.98438,2.60937 z m 0,-2.42187 q 2.32813,0 3.70313,-1.8125 1.375,-1.8125 1.375,-4.98438 0,-3.15625 -1.375,-4.968747 -1.375,-1.8125 -3.70313,-1.8125 -2.34375,0 -3.71875,1.8125 -1.375,1.812497 -1.375,4.968747 0,3.17188 1.375,4.98438 1.375,1.8125 3.71875,1.8125 z"
         style="font-family:Monaco;-inkscape-font-specification:'Monaco Bold';text-align:center;text-anchor:middle"
         id="path1419" />
      <path
         d="M 437.32402,112.86758 V 95.414453 h 2.90625 v 3.8125 q 1.25,-2.015625 3.01563,-3.15625 1.76562,-1.140625 3.53125,-1.140625 1.54687,0 2.8125,0.828125 1.26562,0.8125 1.76562,2.140625 0.51563,1.328125 0.51563,5.218752 v 9.75 h -2.90625 V 102.7582 q 0,-2.51562 -0.25,-3.312497 -0.23438,-0.8125 -0.89063,-1.328125 -0.64062,-0.515625 -1.40625,-0.515625 -1.53125,0 -3.29687,1.453125 -1.75,1.453122 -2.89063,3.640622 v 10.17188 z"
         style="font-family:Monaco;-inkscape-font-specification:'Monaco Bold';text-align:center;text-anchor:middle"
         id="path1421" />
      <path
         d="m 455.19464,111.9457 v -3.07812 q 1.75,1.14062 3.70313,1.60937 1.95312,0.45313 3.3125,0.45313 2.20312,0 3.17187,-0.70313 0.96875,-0.71875 0.96875,-1.78125 0,-0.70312 -0.45312,-1.20312 -0.45313,-0.5 -2.25,-1.23438 l -1,-0.40625 -2.01563,-0.79687 q -3.25,-1.26563 -4.09375,-2.34375 -0.85937,-1.0625 -0.85937,-2.593752 0,-2.15625 1.65625,-3.546875 1.67187,-1.390625 5.40625,-1.390625 2.79687,0 5.29687,0.8125 v 2.640625 q -2.875,-1.03125 -5.40625,-1.03125 -1.84375,0 -2.89062,0.65625 -1.03125,0.640625 -1.03125,1.609375 0,0.937502 0.90625,1.500002 0.89062,0.5625 2.90625,1.29687 l 1.96875,0.71875 q 2.70312,0.98438 3.79687,2.14063 1.09375,1.15625 1.09375,2.89062 0,2.26563 -1.75,3.73438 -1.73437,1.45312 -5.5625,1.45312 -3.34375,0 -6.875,-1.40625 z"
         style="font-family:Monaco;-inkscape-font-specification:'Monaco Bold';text-align:center;text-anchor:middle"
         id="path1423" />
      <path
         d="m 225.31402,153.273 v -24.25 h 5.75 q 3.96875,0 5.89063,1.39063 1.9375,1.375 2.90625,4.17187 0.96875,2.79688 0.96875,6.625 0,3.625 -1.03125,6.375 -1.01563,2.73438 -2.89063,4.21875 -1.875,1.46875 -5.84375,1.46875 z m 3.15625,-2.67187 h 2.10938 q 3.20312,0 4.5625,-1.14063 1.375,-1.14062 1.95312,-3.15625 0.59375,-2.03125 0.59375,-5.59375 0,-3.48437 -0.6875,-5.35937 -0.6875,-1.875 -1.96875,-2.875 -1.28125,-1.01563 -4.20312,-1.01563 h -2.35938 z"
         style="font-family:Monaco;-inkscape-font-specification:'Monaco Bold';text-align:center;text-anchor:middle"
         id="path1425" />
      <path
         d="m 254.45027,149.35113 q -1.32812,2.1875 -3.20312,3.29687 -1.85938,1.10938 -3.42188,1.10938 -2.1875,0 -3.9375,-1.89063 -1.73437,-1.89062 -1.73437,-5.73437 0,-3.03125 1.15625,-5.40625 1.15625,-2.39063 3.09375,-3.76563 1.9375,-1.39062 4.79687,-1.39062 0.82813,0 2.5,0.17187 0.25,0.0312 0.75,0.0781 h 2.92188 V 148.148 q 0,3.15625 0.65625,5.125 h -3.03125 q -0.34375,-1.4375 -0.54688,-3.92187 z m 0,-3.45313 v -7.48437 q -1.54687,-0.40625 -2.875,-0.40625 -2.6875,0 -4.48437,2.07812 -1.78125,2.07813 -1.78125,5.65625 0,2.59375 0.96875,3.92188 0.98437,1.3125 2.23437,1.3125 1.35938,0 3,-1.375 1.64063,-1.375 2.9375,-3.70313 z"
         style="font-family:Monaco;-inkscape-font-specification:'Monaco Bold';text-align:center;text-anchor:middle"
         id="path1427" />
      <path
         d="m 259.33652,153.273 v -17.45312 h 2.54688 v 4 q 1.20312,-2.54688 2.23437,-3.51563 1.04688,-0.96875 2.10938,-0.96875 1.26562,0 2.03125,1 0.78125,0.98438 0.78125,2.8125 v 0.9375 q 0.51562,-1.59375 1.23437,-2.57812 0.73438,-1 1.51563,-1.57813 0.78125,-0.59375 1.79687,-0.59375 1.125,0 1.92188,0.95313 0.79687,0.95312 0.79687,3.79687 v 13.1875 h -2.54687 v -11.92187 q 0,-1.46875 -0.0937,-2 -0.0937,-0.54688 -0.375,-0.82813 -0.28125,-0.28125 -0.60938,-0.28125 -0.8125,0 -1.75,1.25 -0.92187,1.23438 -1.89062,4.10938 v 9.67187 h -2.4375 v -11.90625 q 0,-2.3125 -0.45313,-2.71875 -0.45312,-0.40625 -0.8125,-0.40625 -0.79687,0 -1.71875,1.39063 -0.90625,1.39062 -1.73437,3.5625 V 153.273 Z"
         style="font-family:Monaco;-inkscape-font-specification:'Monaco Bold';text-align:center;text-anchor:middle"
         id="path1429" />
      <path
         d="m 278.31652,153.273 v -17.45312 h 2.90625 v 3.8125 q 1.25,-2.01563 3.01563,-3.15625 1.76562,-1.14063 3.53125,-1.14063 1.54687,0 2.8125,0.82813 1.26562,0.8125 1.76562,2.14062 0.51563,1.32813 0.51563,5.21875 v 9.75 h -2.90625 v -10.10937 q 0,-2.51563 -0.25,-3.3125 -0.23438,-0.8125 -0.89063,-1.32813 -0.64062,-0.51562 -1.40625,-0.51562 -1.53125,0 -3.29687,1.45312 -1.75,1.45313 -2.89063,3.64063 V 153.273 Z"
         style="font-family:Monaco;-inkscape-font-specification:'Monaco Bold';text-align:center;text-anchor:middle"
         id="path1431" />
      <path
         d="m 326.90152,129.023 h 3.03125 l -7.46875,24.25 h -3.20312 l -7.51563,-24.25 h 3.32813 l 5.26562,16.9375 0.6875,2.46875 0.60938,-2.45312 z"
         style="font-family:Monaco;-inkscape-font-specification:'Monaco Bold';text-align:center;text-anchor:middle"
         id="path1433" />
      <path
         d="M 345.6784,135.81988 V 153.273 h -2.90625 v -3.82812 q -1.40625,2.15625 -3.125,3.23437 -1.71875,1.07813 -3.4375,1.07813 -1.53125,0 -2.8125,-0.8125 -1.26563,-0.82813 -1.76563,-2.15625 -0.5,-1.34375 -0.5,-5.21875 v -9.75 h 2.90625 v 10.10937 q 0,2.51563 0.23438,3.32813 0.25,0.79687 0.89062,1.3125 0.65625,0.51562 1.40625,0.51562 1.53125,0 3.28125,-1.4375 1.76563,-1.45312 2.92188,-3.65625 v -10.17187 z"
         style="font-family:Monaco;-inkscape-font-specification:'Monaco Bold';text-align:center;text-anchor:middle"
         id="path1435" />
      <path
         d="m 353.67402,153.273 v -22.78125 h -5.21875 v -2.4375 h 8.125 v 22.79688 h 5.45313 v 2.42187 z"
         style="font-family:Monaco;-inkscape-font-specification:'Monaco Bold';text-align:center;text-anchor:middle"
         id="path1437" />
      <path
         d="m 366.65402,153.273 v -17.45312 h 2.90625 v 3.8125 q 1.25,-2.01563 3.01562,-3.15625 1.76563,-1.14063 3.53125,-1.14063 1.54688,0 2.8125,0.82813 1.26563,0.8125 1.76563,2.14062 0.51562,1.32813 0.51562,5.21875 v 9.75 h -2.90625 v -10.10937 q 0,-2.51563 -0.25,-3.3125 -0.23437,-0.8125 -0.89062,-1.32813 -0.64063,-0.51562 -1.40625,-0.51562 -1.53125,0 -3.29688,1.45312 -1.75,1.45313 -2.89062,3.64063 V 153.273 Z"
         style="font-family:Monaco;-inkscape-font-specification:'Monaco Bold';text-align:center;text-anchor:middle"
         id="path1439" />
      <path
         d="m 398.83716,152.11675 q -3.48438,1.65625 -6.59375,1.65625 -2.35938,0 -4.21875,-1.17187 -1.85938,-1.17188 -2.98438,-3.34375 -1.10937,-2.1875 -1.10937,-4.67188 0,-2.39062 1.0625,-4.59375 1.0625,-2.20312 2.96875,-3.42187 1.90625,-1.23438 4.25,-1.23438 3.10937,0 4.98437,2.21875 1.89063,2.21875 1.89063,6.84375 v 0.625 h -12.03125 q 0,1.8125 0.75,3.3125 0.76562,1.5 2,2.25 1.23437,0.75 2.8125,0.75 2.8125,0 6.21875,-1.875 z m -11.60938,-9.26562 h 8.70313 v -0.42188 q 0,-2.14062 -1.04688,-3.40625 -1.04687,-1.26562 -2.79687,-1.26562 -1.76563,0 -3.0625,1.29687 -1.28125,1.28125 -1.79688,3.79688 z"
         style="font-family:Monaco;-inkscape-font-specification:'Monaco Bold';text-align:center;text-anchor:middle"
         id="path1441" />
      <path
         d="m 403.4734,153.273 v -17.45312 h 2.90625 v 3.8125 q 1.35938,-2.15625 3.10938,-3.21875 1.76562,-1.07813 3.92187,-1.07813 1.57813,0 3.15625,0.48438 v 6.29687 h -2.79687 v -3.98437 q -0.73438,-0.125 -1.15625,-0.125 -1.625,0 -3.1875,1.28125 -1.5625,1.28125 -3.04688,3.84375 V 153.273 Z"
         style="font-family:Monaco;-inkscape-font-specification:'Monaco Bold';text-align:center;text-anchor:middle"
         id="path1443" />
      <path
         d="m 431.12527,149.35113 q -1.32812,2.1875 -3.20312,3.29687 -1.85938,1.10938 -3.42188,1.10938 -2.1875,0 -3.9375,-1.89063 -1.73437,-1.89062 -1.73437,-5.73437 0,-3.03125 1.15625,-5.40625 1.15625,-2.39063 3.09375,-3.76563 1.9375,-1.39062 4.79687,-1.39062 0.82813,0 2.5,0.17187 0.25,0.0312 0.75,0.0781 h 2.92188 V 148.148 q 0,3.15625 0.65625,5.125 h -3.03125 q -0.34375,-1.4375 -0.54688,-3.92187 z m 0,-3.45313 v -7.48437 q -1.54687,-0.40625 -2.875,-0.40625 -2.6875,0 -4.48437,2.07812 -1.78125,2.07813 -1.78125,5.65625 0,2.59375 0.96875,3.92188 0.98437,1.3125 2.23437,1.3125 1.35938,0 3,-1.375 1.64063,-1.375 2.9375,-3.70313 z"
         style="font-family:Monaco;-inkscape-font-specification:'Monaco Bold';text-align:center;text-anchor:middle"
         id="path1445" />
      <path
         d="m 440.01152,139.74175 q 1.34375,-2.1875 3.20312,-3.29687 1.85938,-1.10938 3.42188,-1.10938 2.1875,0 3.9375,1.89063 1.75,1.89062 1.75,5.73437 0,3.03125 -1.17188,5.42188 -1.15625,2.375 -3.09375,3.76562 -1.9375,1.375 -4.79687,1.375 -0.8125,0 -2.5,-0.17187 -0.25,-0.0312 -0.75,-0.0781 h -2.90625 v -25.21875 h 2.90625 z m 0,3.45313 v 7.48437 q 1.57812,0.40625 2.90625,0.40625 2.64062,0 4.4375,-2.0625 1.8125,-2.07812 1.8125,-5.67187 0,-2.60938 -0.98438,-3.92188 -0.98437,-1.3125 -2.23437,-1.3125 -1.35938,0 -3,1.375 -1.625,1.375 -2.9375,3.70313 z"
         style="font-family:Monaco;-inkscape-font-specification:'Monaco Bold';text-align:center;text-anchor:middle"
         id="path1447" />
      <path
         d="m 459.67903,153.273 v -22.78125 h -5.21875 v -2.4375 h 8.125 v 22.79688 h 5.45312 v 2.42187 z"
         style="font-family:Monaco;-inkscape-font-specification:'Monaco Bold';text-align:center;text-anchor:middle"
         id="path1449" />
      <path
         d="m 487.17465,152.11675 q -3.48438,1.65625 -6.59375,1.65625 -2.35938,0 -4.21875,-1.17187 -1.85938,-1.17188 -2.98438,-3.34375 -1.10937,-2.1875 -1.10937,-4.67188 0,-2.39062 1.0625,-4.59375 1.0625,-2.20312 2.96875,-3.42187 1.90625,-1.23438 4.25,-1.23438 3.10937,0 4.98437,2.21875 1.89063,2.21875 1.89063,6.84375 v 0.625 H 475.3934 q 0,1.8125 0.75,3.3125 0.76562,1.5 2,2.25 1.23437,0.75 2.8125,0.75 2.8125,0 6.21875,-1.875 z m -11.60938,-9.26562 h 8.70313 v -0.42188 q 0,-2.14062 -1.04688,-3.40625 -1.04687,-1.26562 -2.79687,-1.26562 -1.76563,0 -3.0625,1.29687 -1.28125,1.28125 -1.79688,3.79688 z"
         style="font-family:Monaco;-inkscape-font-specification:'Monaco Bold';text-align:center;text-anchor:middle"
         id="path1451" />
      <path
         d="m 507.99402,153.273 v -24.25 h 5.75 q 3.96875,0 5.89062,1.39063 1.9375,1.375 2.90625,4.17187 0.96875,2.79688 0.96875,6.625 0,3.625 -1.03125,6.375 -1.01562,2.73438 -2.89062,4.21875 -1.875,1.46875 -5.84375,1.46875 z m 3.15625,-2.67187 h 2.10937 q 3.20313,0 4.5625,-1.14063 1.375,-1.14062 1.95313,-3.15625 0.59375,-2.03125 0.59375,-5.59375 0,-3.48437 -0.6875,-5.35937 -0.6875,-1.875 -1.96875,-2.875 -1.28125,-1.01563 -4.20313,-1.01563 h -2.35937 z"
         style="font-family:Monaco;-inkscape-font-specification:'Monaco Bold';text-align:center;text-anchor:middle"
         id="path1453" />
      <path
         d="m 540.17715,152.11675 q -3.48437,1.65625 -6.59375,1.65625 -2.35937,0 -4.21875,-1.17187 -1.85937,-1.17188 -2.98437,-3.34375 -1.10938,-2.1875 -1.10938,-4.67188 0,-2.39062 1.0625,-4.59375 1.0625,-2.20312 2.96875,-3.42187 1.90625,-1.23438 4.25,-1.23438 3.10938,0 4.98438,2.21875 1.89062,2.21875 1.89062,6.84375 v 0.625 H 528.3959 q 0,1.8125 0.75,3.3125 0.76563,1.5 2,2.25 1.23438,0.75 2.8125,0.75 2.8125,0 6.21875,-1.875 z m -11.60937,-9.26562 h 8.70312 v -0.42188 q 0,-2.14062 -1.04687,-3.40625 -1.04688,-1.26562 -2.79688,-1.26562 -1.76562,0 -3.0625,1.29687 -1.28125,1.28125 -1.79687,3.79688 z"
         style="font-family:Monaco;-inkscape-font-specification:'Monaco Bold';text-align:center;text-anchor:middle"
         id="path1455" />
      <path
         d="m 544.45404,153.273 v -24.25 h 13.32812 v 2.4375 h -10.17187 v 8.23438 h 9.20312 v 2.42187 h -9.20312 V 153.273 Z"
         style="font-family:Monaco;-inkscape-font-specification:'Monaco Bold';text-align:center;text-anchor:middle"
         id="path1457" />
      <path
         d="m 565.88714,153.273 v -15.03125 h -4.84375 v -2.42187 h 7.75 v 15.03125 h 4.85938 v 2.42187 z m -0.48437,-23.75 q 0,-0.98437 0.67187,-1.46875 0.67188,-0.48437 1.26563,-0.48437 0.60937,0 1.28125,0.48437 0.67187,0.48438 0.67187,1.46875 0,0.96875 -0.67187,1.45313 -0.67188,0.48437 -1.28125,0.48437 -0.59375,0 -1.26563,-0.48437 -0.67187,-0.48438 -0.67187,-1.45313 z"
         style="font-family:Monaco;-inkscape-font-specification:'Monaco Bold';text-align:center;text-anchor:middle"
         id="path1459" />
    </g>
    <text
       xml:space="preserve"
       transform="scale(0.26458333)"
       id="text3486"
       style="font-weight:bold;font-size:96px;line-height:1.25;font-family:sans-serif;-inkscape-font-specification:'sans-serif Bold';word-spacing:0px;white-space:pre;shape-inside:url(#rect3488)" />
  </g>
  <g
     inkscape:groupmode="layer"
     id="layer2"
     inkscape:label="Layer 2"
     style="display:inline"
     transform="translate(-58.61669,-21.808302)">
    <g
       aria-label="$olutions 
Damn Vulnerable DeFi"
       transform="scale(0.26458333)"
       id="text31337"
       style="font-weight:bold;font-size:32px;line-height:1.25;-inkscape-font-specification:'sans-serif Bold';letter-spacing:-1.52px;word-spacing:0px;white-space:pre;shape-inside:url(#rect31339);display:inline;fill:#b5e853;stroke-width:1.00157">
      <path
         d="m 320.29215,115.28945 v -2.45312 q -1.04688,0 -2.17188,-0.10938 -1.125,-0.10937 -2.10937,-0.32812 -0.98438,-0.23438 -2.26563,-0.8125 v -3 q 1.03125,0.53125 2.01563,0.90625 1,0.375 2.09375,0.59375 1.10937,0.21875 2.4375,0.3125 v -8.70313 l -1.67188,-0.90625 q -4.75,-2.546872 -4.75,-6.156247 0,-1.921875 1.57813,-3.734375 1.57812,-1.828125 4.84375,-2.109375 v -2.59375 h 2.1875 v 2.59375 q 1.84375,0 4.35937,0.640625 v 2.703125 l -0.54687,-0.15625 q -2.35938,-0.65625 -3.8125,-0.796875 v 8.5 l 1.75,1.000002 q 2.46875,1.42187 3.375,2.79687 0.92187,1.375 0.92187,2.92188 0,1.39062 -0.70312,2.70312 -0.6875,1.29688 -1.98438,2.23438 -1.29687,0.9375 -3.35937,1.29687 v 2.65625 z m 0,-16.921872 v -7.21875 q -1.57813,0.359375 -2.4375,1.1875 -0.84375,0.828125 -0.84375,1.9375 0,1.046875 0.71875,2.015625 0.73437,0.953125 2.5625,2.078125 z m 2.1875,4.625002 v 7.1875 q 1.70312,-0.60938 2.29687,-1.48438 0.60938,-0.89062 0.60938,-1.98437 0,-1.0625 -0.59375,-1.8125 -0.59375,-0.76563 -2.3125,-1.90625 z"
         style="font-family:Monaco;-inkscape-font-specification:'Monaco Bold';text-align:center;text-anchor:middle;stroke:#b5e853"
         id="path1480" />
      <path
         d="m 338.50652,113.35195 q -3.75,0 -6,-2.60937 -2.25,-2.625 -2.25,-6.60938 0,-3.98437 2.25,-6.593747 2.25,-2.609375 6,-2.609375 3.73438,0 5.98438,2.609375 2.25,2.609377 2.25,6.593747 0,3.98438 -2.25,6.60938 -2.25,2.60937 -5.98438,2.60937 z m 0,-2.42187 q 2.32813,0 3.70313,-1.8125 1.375,-1.8125 1.375,-4.98438 0,-3.15625 -1.375,-4.968747 -1.375,-1.8125 -3.70313,-1.8125 -2.34375,0 -3.71875,1.8125 -1.375,1.812497 -1.375,4.968747 0,3.17188 1.375,4.98438 1.375,1.8125 3.71875,1.8125 z"
         style="font-family:Monaco;-inkscape-font-specification:'Monaco Bold';text-align:center;text-anchor:middle;stroke:#b5e853"
         id="path1482" />
      <path
         d="M 353.67402,112.86758 V 90.086328 h -5.21875 v -2.4375 h 8.125 V 110.4457 h 5.45313 v 2.42188 z"
         style="font-family:Monaco;-inkscape-font-specification:'Monaco Bold';text-align:center;text-anchor:middle;stroke:#b5e853"
         id="path1484" />
      <path
         d="m 381.0134,95.414453 v 17.453127 h -2.90625 v -3.82813 q -1.40625,2.15625 -3.125,3.23438 -1.71875,1.07812 -3.4375,1.07812 -1.53125,0 -2.8125,-0.8125 -1.26563,-0.82812 -1.76563,-2.15625 -0.5,-1.34375 -0.5,-5.21875 v -9.749997 h 2.90625 v 10.109377 q 0,2.51562 0.23438,3.32812 0.25,0.79688 0.89062,1.3125 0.65625,0.51563 1.40625,0.51563 1.53125,0 3.28125,-1.4375 1.76563,-1.45313 2.92188,-3.65625 V 95.414453 Z"
         style="font-family:Monaco;-inkscape-font-specification:'Monaco Bold';text-align:center;text-anchor:middle;stroke:#b5e853"
         id="path1486" />
      <path
         d="m 398.91527,112.16445 q -2.04687,0.85938 -2.96875,1.01563 -0.92187,0.17187 -1.78125,0.17187 -1.82812,0 -3.34375,-0.70312 -1.51562,-0.70313 -2.29687,-2.07813 -0.76563,-1.375 -0.76563,-4.25 v -7.031247 h -4.35937 v -2.421875 h 4.35937 v -7.03125 h 2.90625 v 7.03125 h 7.76563 v 2.421875 h -7.76563 v 6.984377 q 0,2.10937 0.5,2.98437 0.5,0.85938 1.32813,1.26563 0.84375,0.40625 1.98437,0.40625 2.10938,0 4.4375,-1.32813 z"
         style="font-family:Monaco;-inkscape-font-specification:'Monaco Bold';text-align:center;text-anchor:middle;stroke:#b5e853"
         id="path1488" />
      <path
         d="M 406.87965,112.86758 V 97.836328 h -4.84375 v -2.421875 h 7.75 V 110.4457 h 4.85937 v 2.42188 z m -0.48438,-23.750002 q 0,-0.984375 0.67188,-1.46875 0.67187,-0.484375 1.26562,-0.484375 0.60938,0 1.28125,0.484375 0.67188,0.484375 0.67188,1.46875 0,0.96875 -0.67188,1.453125 -0.67187,0.484375 -1.28125,0.484375 -0.59375,0 -1.26562,-0.484375 -0.67188,-0.484375 -0.67188,-1.453125 z"
         style="font-family:Monaco;-inkscape-font-specification:'Monaco Bold';text-align:center;text-anchor:middle;stroke:#b5e853"
         id="path1490" />
      <path
         d="m 426.84402,113.35195 q -3.75,0 -6,-2.60937 -2.25,-2.625 -2.25,-6.60938 0,-3.98437 2.25,-6.593747 2.25,-2.609375 6,-2.609375 3.73438,0 5.98438,2.609375 2.25,2.609377 2.25,6.593747 0,3.98438 -2.25,6.60938 -2.25,2.60937 -5.98438,2.60937 z m 0,-2.42187 q 2.32813,0 3.70313,-1.8125 1.375,-1.8125 1.375,-4.98438 0,-3.15625 -1.375,-4.968747 -1.375,-1.8125 -3.70313,-1.8125 -2.34375,0 -3.71875,1.8125 -1.375,1.812497 -1.375,4.968747 0,3.17188 1.375,4.98438 1.375,1.8125 3.71875,1.8125 z"
         style="font-family:Monaco;-inkscape-font-specification:'Monaco Bold';text-align:center;text-anchor:middle;stroke:#b5e853"
         id="path1492" />
      <path
         d="M 437.32402,112.86758 V 95.414453 h 2.90625 v 3.8125 q 1.25,-2.015625 3.01563,-3.15625 1.76562,-1.140625 3.53125,-1.140625 1.54687,0 2.8125,0.828125 1.26562,0.8125 1.76562,2.140625 0.51563,1.328125 0.51563,5.218752 v 9.75 h -2.90625 V 102.7582 q 0,-2.51562 -0.25,-3.312497 -0.23438,-0.8125 -0.89063,-1.328125 -0.64062,-0.515625 -1.40625,-0.515625 -1.53125,0 -3.29687,1.453125 -1.75,1.453122 -2.89063,3.640622 v 10.17188 z"
         style="font-family:Monaco;-inkscape-font-specification:'Monaco Bold';text-align:center;text-anchor:middle;stroke:#b5e853"
         id="path1494" />
      <path
         d="m 455.19464,111.9457 v -3.07812 q 1.75,1.14062 3.70313,1.60937 1.95312,0.45313 3.3125,0.45313 2.20312,0 3.17187,-0.70313 0.96875,-0.71875 0.96875,-1.78125 0,-0.70312 -0.45312,-1.20312 -0.45313,-0.5 -2.25,-1.23438 l -1,-0.40625 -2.01563,-0.79687 q -3.25,-1.26563 -4.09375,-2.34375 -0.85937,-1.0625 -0.85937,-2.593752 0,-2.15625 1.65625,-3.546875 1.67187,-1.390625 5.40625,-1.390625 2.79687,0 5.29687,0.8125 v 2.640625 q -2.875,-1.03125 -5.40625,-1.03125 -1.84375,0 -2.89062,0.65625 -1.03125,0.640625 -1.03125,1.609375 0,0.937502 0.90625,1.500002 0.89062,0.5625 2.90625,1.29687 l 1.96875,0.71875 q 2.70312,0.98438 3.79687,2.14063 1.09375,1.15625 1.09375,2.89062 0,2.26563 -1.75,3.73438 -1.73437,1.45312 -5.5625,1.45312 -3.34375,0 -6.875,-1.40625 z"
         style="font-family:Monaco;-inkscape-font-specification:'Monaco Bold';text-align:center;text-anchor:middle;stroke:#b5e853"
         id="path1496" />
      <path
         d="m 225.31402,153.273 v -24.25 h 5.75 q 3.96875,0 5.89063,1.39063 1.9375,1.375 2.90625,4.17187 0.96875,2.79688 0.96875,6.625 0,3.625 -1.03125,6.375 -1.01563,2.73438 -2.89063,4.21875 -1.875,1.46875 -5.84375,1.46875 z m 3.15625,-2.67187 h 2.10938 q 3.20312,0 4.5625,-1.14063 1.375,-1.14062 1.95312,-3.15625 0.59375,-2.03125 0.59375,-5.59375 0,-3.48437 -0.6875,-5.35937 -0.6875,-1.875 -1.96875,-2.875 -1.28125,-1.01563 -4.20312,-1.01563 h -2.35938 z"
         style="font-family:Monaco;-inkscape-font-specification:'Monaco Bold';text-align:center;text-anchor:middle;stroke:#b5e853"
         id="path1498" />
      <path
         d="m 254.45027,149.35113 q -1.32812,2.1875 -3.20312,3.29687 -1.85938,1.10938 -3.42188,1.10938 -2.1875,0 -3.9375,-1.89063 -1.73437,-1.89062 -1.73437,-5.73437 0,-3.03125 1.15625,-5.40625 1.15625,-2.39063 3.09375,-3.76563 1.9375,-1.39062 4.79687,-1.39062 0.82813,0 2.5,0.17187 0.25,0.0312 0.75,0.0781 h 2.92188 V 148.148 q 0,3.15625 0.65625,5.125 h -3.03125 q -0.34375,-1.4375 -0.54688,-3.92187 z m 0,-3.45313 v -7.48437 q -1.54687,-0.40625 -2.875,-0.40625 -2.6875,0 -4.48437,2.07812 -1.78125,2.07813 -1.78125,5.65625 0,2.59375 0.96875,3.92188 0.98437,1.3125 2.23437,1.3125 1.35938,0 3,-1.375 1.64063,-1.375 2.9375,-3.70313 z"
         style="font-family:Monaco;-inkscape-font-specification:'Monaco Bold';text-align:center;text-anchor:middle;stroke:#b5e853"
         id="path1500" />
      <path
         d="m 259.33652,153.273 v -17.45312 h 2.54688 v 4 q 1.20312,-2.54688 2.23437,-3.51563 1.04688,-0.96875 2.10938,-0.96875 1.26562,0 2.03125,1 0.78125,0.98438 0.78125,2.8125 v 0.9375 q 0.51562,-1.59375 1.23437,-2.57812 0.73438,-1 1.51563,-1.57813 0.78125,-0.59375 1.79687,-0.59375 1.125,0 1.92188,0.95313 0.79687,0.95312 0.79687,3.79687 v 13.1875 h -2.54687 v -11.92187 q 0,-1.46875 -0.0937,-2 -0.0937,-0.54688 -0.375,-0.82813 -0.28125,-0.28125 -0.60938,-0.28125 -0.8125,0 -1.75,1.25 -0.92187,1.23438 -1.89062,4.10938 v 9.67187 h -2.4375 v -11.90625 q 0,-2.3125 -0.45313,-2.71875 -0.45312,-0.40625 -0.8125,-0.40625 -0.79687,0 -1.71875,1.39063 -0.90625,1.39062 -1.73437,3.5625 V 153.273 Z"
         style="font-family:Monaco;-inkscape-font-specification:'Monaco Bold';text-align:center;text-anchor:middle;stroke:#b5e853"
         id="path1502" />
      <path
         d="m 278.31652,153.273 v -17.45312 h 2.90625 v 3.8125 q 1.25,-2.01563 3.01563,-3.15625 1.76562,-1.14063 3.53125,-1.14063 1.54687,0 2.8125,0.82813 1.26562,0.8125 1.76562,2.14062 0.51563,1.32813 0.51563,5.21875 v 9.75 h -2.90625 v -10.10937 q 0,-2.51563 -0.25,-3.3125 -0.23438,-0.8125 -0.89063,-1.32813 -0.64062,-0.51562 -1.40625,-0.51562 -1.53125,0 -3.29687,1.45312 -1.75,1.45313 -2.89063,3.64063 V 153.273 Z"
         style="font-family:Monaco;-inkscape-font-specification:'Monaco Bold';text-align:center;text-anchor:middle;stroke:#b5e853"
         id="path1504" />
      <path
         d="m 326.90152,129.023 h 3.03125 l -7.46875,24.25 h -3.20312 l -7.51563,-24.25 h 3.32813 l 5.26562,16.9375 0.6875,2.46875 0.60938,-2.45312 z"
         style="font-family:Monaco;-inkscape-font-specification:'Monaco Bold';text-align:center;text-anchor:middle;stroke:#b5e853"
         id="path1506" />
      <path
         d="M 345.6784,135.81988 V 153.273 h -2.90625 v -3.82812 q -1.40625,2.15625 -3.125,3.23437 -1.71875,1.07813 -3.4375,1.07813 -1.53125,0 -2.8125,-0.8125 -1.26563,-0.82813 -1.76563,-2.15625 -0.5,-1.34375 -0.5,-5.21875 v -9.75 h 2.90625 v 10.10937 q 0,2.51563 0.23438,3.32813 0.25,0.79687 0.89062,1.3125 0.65625,0.51562 1.40625,0.51562 1.53125,0 3.28125,-1.4375 1.76563,-1.45312 2.92188,-3.65625 v -10.17187 z"
         style="font-family:Monaco;-inkscape-font-specification:'Monaco Bold';text-align:center;text-anchor:middle;stroke:#b5e853"
         id="path1508" />
      <path
         d="m 353.67402,153.273 v -22.78125 h -5.21875 v -2.4375 h 8.125 v 22.79688 h 5.45313 v 2.42187 z"
         style="font-family:Monaco;-inkscape-font-specification:'Monaco Bold';text-align:center;text-anchor:middle;stroke:#b5e853"
         id="path1510" />
      <path
         d="m 366.65402,153.273 v -17.45312 h 2.90625 v 3.8125 q 1.25,-2.01563 3.01562,-3.15625 1.76563,-1.14063 3.53125,-1.14063 1.54688,0 2.8125,0.82813 1.26563,0.8125 1.76563,2.14062 0.51562,1.32813 0.51562,5.21875 v 9.75 h -2.90625 v -10.10937 q 0,-2.51563 -0.25,-3.3125 -0.23437,-0.8125 -0.89062,-1.32813 -0.64063,-0.51562 -1.40625,-0.51562 -1.53125,0 -3.29688,1.45312 -1.75,1.45313 -2.89062,3.64063 V 153.273 Z"
         style="font-family:Monaco;-inkscape-font-specification:'Monaco Bold';text-align:center;text-anchor:middle;stroke:#b5e853"
         id="path1512" />
      <path
         d="m 398.83716,152.11675 q -3.48438,1.65625 -6.59375,1.65625 -2.35938,0 -4.21875,-1.17187 -1.85938,-1.17188 -2.98438,-3.34375 -1.10937,-2.1875 -1.10937,-4.67188 0,-2.39062 1.0625,-4.59375 1.0625,-2.20312 2.96875,-3.42187 1.90625,-1.23438 4.25,-1.23438 3.10937,0 4.98437,2.21875 1.89063,2.21875 1.89063,6.84375 v 0.625 h -12.03125 q 0,1.8125 0.75,3.3125 0.76562,1.5 2,2.25 1.23437,0.75 2.8125,0.75 2.8125,0 6.21875,-1.875 z m -11.60938,-9.26562 h 8.70313 v -0.42188 q 0,-2.14062 -1.04688,-3.40625 -1.04687,-1.26562 -2.79687,-1.26562 -1.76563,0 -3.0625,1.29687 -1.28125,1.28125 -1.79688,3.79688 z"
         style="font-family:Monaco;-inkscape-font-specification:'Monaco Bold';text-align:center;text-anchor:middle;stroke:#b5e853"
         id="path1514" />
      <path
         d="m 403.4734,153.273 v -17.45312 h 2.90625 v 3.8125 q 1.35938,-2.15625 3.10938,-3.21875 1.76562,-1.07813 3.92187,-1.07813 1.57813,0 3.15625,0.48438 v 6.29687 h -2.79687 v -3.98437 q -0.73438,-0.125 -1.15625,-0.125 -1.625,0 -3.1875,1.28125 -1.5625,1.28125 -3.04688,3.84375 V 153.273 Z"
         style="font-family:Monaco;-inkscape-font-specification:'Monaco Bold';text-align:center;text-anchor:middle;stroke:#b5e853"
         id="path1516" />
      <path
         d="m 431.12527,149.35113 q -1.32812,2.1875 -3.20312,3.29687 -1.85938,1.10938 -3.42188,1.10938 -2.1875,0 -3.9375,-1.89063 -1.73437,-1.89062 -1.73437,-5.73437 0,-3.03125 1.15625,-5.40625 1.15625,-2.39063 3.09375,-3.76563 1.9375,-1.39062 4.79687,-1.39062 0.82813,0 2.5,0.17187 0.25,0.0312 0.75,0.0781 h 2.92188 V 148.148 q 0,3.15625 0.65625,5.125 h -3.03125 q -0.34375,-1.4375 -0.54688,-3.92187 z m 0,-3.45313 v -7.48437 q -1.54687,-0.40625 -2.875,-0.40625 -2.6875,0 -4.48437,2.07812 -1.78125,2.07813 -1.78125,5.65625 0,2.59375 0.96875,3.92188 0.98437,1.3125 2.23437,1.3125 1.35938,0 3,-1.375 1.64063,-1.375 2.9375,-3.70313 z"
         style="font-family:Monaco;-inkscape-font-specification:'Monaco Bold';text-align:center;text-anchor:middle;stroke:#b5e853"
         id="path1518" />
      <path
         d="m 440.01152,139.74175 q 1.34375,-2.1875 3.20312,-3.29687 1.85938,-1.10938 3.42188,-1.10938 2.1875,0 3.9375,1.89063 1.75,1.89062 1.75,5.73437 0,3.03125 -1.17188,5.42188 -1.15625,2.375 -3.09375,3.76562 -1.9375,1.375 -4.79687,1.375 -0.8125,0 -2.5,-0.17187 -0.25,-0.0312 -0.75,-0.0781 h -2.90625 v -25.21875 h 2.90625 z m 0,3.45313 v 7.48437 q 1.57812,0.40625 2.90625,0.40625 2.64062,0 4.4375,-2.0625 1.8125,-2.07812 1.8125,-5.67187 0,-2.60938 -0.98438,-3.92188 -0.98437,-1.3125 -2.23437,-1.3125 -1.35938,0 -3,1.375 -1.625,1.375 -2.9375,3.70313 z"
         style="font-family:Monaco;-inkscape-font-specification:'Monaco Bold';text-align:center;text-anchor:middle;stroke:#b5e853"
         id="path1520" />
      <path
         d="m 459.67903,153.273 v -22.78125 h -5.21875 v -2.4375 h 8.125 v 22.79688 h 5.45312 v 2.42187 z"
         style="font-family:Monaco;-inkscape-font-specification:'Monaco Bold';text-align:center;text-anchor:middle;stroke:#b5e853"
         id="path1522" />
      <path
         d="m 487.17465,152.11675 q -3.48438,1.65625 -6.59375,1.65625 -2.35938,0 -4.21875,-1.17187 -1.85938,-1.17188 -2.98438,-3.34375 -1.10937,-2.1875 -1.10937,-4.67188 0,-2.39062 1.0625,-4.59375 1.0625,-2.20312 2.96875,-3.42187 1.90625,-1.23438 4.25,-1.23438 3.10937,0 4.98437,2.21875 1.89063,2.21875 1.89063,6.84375 v 0.625 H 475.3934 q 0,1.8125 0.75,3.3125 0.76562,1.5 2,2.25 1.23437,0.75 2.8125,0.75 2.8125,0 6.21875,-1.875 z m -11.60938,-9.26562 h 8.70313 v -0.42188 q 0,-2.14062 -1.04688,-3.40625 -1.04687,-1.26562 -2.79687,-1.26562 -1.76563,0 -3.0625,1.29687 -1.28125,1.28125 -1.79688,3.79688 z"
         style="font-family:Monaco;-inkscape-font-specification:'Monaco Bold';text-align:center;text-anchor:middle;stroke:#b5e853"
         id="path1524" />
      <path
         d="m 507.99402,153.273 v -24.25 h 5.75 q 3.96875,0 5.89062,1.39063 1.9375,1.375 2.90625,4.17187 0.96875,2.79688 0.96875,6.625 0,3.625 -1.03125,6.375 -1.01562,2.73438 -2.89062,4.21875 -1.875,1.46875 -5.84375,1.46875 z m 3.15625,-2.67187 h 2.10937 q 3.20313,0 4.5625,-1.14063 1.375,-1.14062 1.95313,-3.15625 0.59375,-2.03125 0.59375,-5.59375 0,-3.48437 -0.6875,-5.35937 -0.6875,-1.875 -1.96875,-2.875 -1.28125,-1.01563 -4.20313,-1.01563 h -2.35937 z"
         style="font-family:Monaco;-inkscape-font-specification:'Monaco Bold';text-align:center;text-anchor:middle;stroke:#b5e853"
         id="path1526" />
      <path
         d="m 540.17715,152.11675 q -3.48437,1.65625 -6.59375,1.65625 -2.35937,0 -4.21875,-1.17187 -1.85937,-1.17188 -2.98437,-3.34375 -1.10938,-2.1875 -1.10938,-4.67188 0,-2.39062 1.0625,-4.59375 1.0625,-2.20312 2.96875,-3.42187 1.90625,-1.23438 4.25,-1.23438 3.10938,0 4.98438,2.21875 1.89062,2.21875 1.89062,6.84375 v 0.625 H 528.3959 q 0,1.8125 0.75,3.3125 0.76563,1.5 2,2.25 1.23438,0.75 2.8125,0.75 2.8125,0 6.21875,-1.875 z m -11.60937,-9.26562 h 8.70312 v -0.42188 q 0,-2.14062 -1.04687,-3.40625 -1.04688,-1.26562 -2.79688,-1.26562 -1.76562,0 -3.0625,1.29687 -1.28125,1.28125 -1.79687,3.79688 z"
         style="font-family:Monaco;-inkscape-font-specification:'Monaco Bold';text-align:center;text-anchor:middle;stroke:#b5e853"
         id="path1528" />
      <path
         d="m 544.45404,153.273 v -24.25 h 13.32812 v 2.4375 h -10.17187 v 8.23438 h 9.20312 v 2.42187 h -9.20312 V 153.273 Z"
         style="font-family:Monaco;-inkscape-font-specification:'Monaco Bold';text-align:center;text-anchor:middle;stroke:#b5e853"
         id="path1530" />
      <path
         d="m 565.88714,153.273 v -15.03125 h -4.84375 v -2.42187 h 7.75 v 15.03125 h 4.85938 v 2.42187 z m -0.48437,-23.75 q 0,-0.98437 0.67187,-1.46875 0.67188,-0.48437 1.26563,-0.48437 0.60937,0 1.28125,0.48437 0.67187,0.48438 0.67187,1.46875 0,0.96875 -0.67187,1.45313 -0.67188,0.48437 -1.28125,0.48437 -0.59375,0 -1.26563,-0.48437 -0.67187,-0.48438 -0.67187,-1.45313 z"
         style="font-family:Monaco;-inkscape-font-specification:'Monaco Bold';text-align:center;text-anchor:middle;stroke:#b5e853"
         id="path1532" />
    </g>
  </g>
</svg>
